#N canvas 193 23 1257 747 10;
#X obj 607 -223 cnv 15 280 500 empty empty empty 20 12 0 14 -228992
-66577 0;
#X obj 630 -137 cnv 15 100 60 empty empty empty 20 12 0 14 -195568
-66577 0;
#N canvas 0 22 450 300 gemwin 0;
#X obj 132 136 gemwin;
#X obj 67 89 outlet;
#X obj 67 10 inlet;
#X msg 67 70 set destroy;
#X msg 335 106 destroy;
#X msg 156 71 set create;
#X obj 67 41 route create;
#X msg 132 112 dimen 1280 720 \, create \, 1;
#X obj 289 32 inlet;
#X connect 2 0 6 0;
#X connect 3 0 1 0;
#X connect 4 0 0 0;
#X connect 5 0 1 0;
#X connect 6 0 3 0;
#X connect 6 0 7 0;
#X connect 6 1 5 0;
#X connect 6 1 4 0;
#X connect 7 0 0 0;
#X connect 8 0 0 0;
#X restore 635 -98 pd gemwin;
#X msg 635 -120 create;
#X text 631 -141 Create window:;
#X obj 606 -9 cnv 15 230 280 empty empty empty 20 12 0 14 -24198 -66577
0;
#X obj 318 -205 loadbang;
#X msg 317 -178 \; pd dsp 1;
#X msg 769 -140 destroy;
#X obj 766 -116 gemkeyboard;
#X floatatom 803 -92 5 0 0 0 - - -;
#X obj 751 -93 sel 53;
#X obj 167 -77 pix_data;
#X obj 138 -117 bang~;
#X obj 615 89 pix_draw 11;
#X obj 616 15 gemhead 10;
#X text 612 -11 fullsize image;
#X obj 223 475 dac~;
#X obj 174 150 osc~;
#X floatatom 171 71 5 0 0 0 - - -;
#X obj 174 125 mtof;
#X obj 72 301 st-pureverb;
#X obj 73 225 st-AMtremolo;
#X msg 624 -218 fullscreen 0 \, dimen 1280 720 \, create \, 1;
#X obj 343 217 pix_resize;
#X msg 330 183 dimen 1280 720;
#X text 201 43 comment;
#X obj 98 112 - 1;
#X obj 98 133 abs;
#X obj 161 193 *~;
#X floatatom 211 161 5 0 0 0 - - -;
#X obj 126 194 *~;
#X floatatom 90 156 5 0 0 0 - - -;
#X text 190 193 pan left-right;
#X text 109 -16 comment;
#X text 95 -92 comment;
#X obj 159 -14 unpack 0 0 0;
#X floatatom 232 18 5 0 0 0 - - -;
#X floatatom 191 19 5 0 0 0 - - -;
#X floatatom 152 18 5 0 0 0 - - -;
#X obj 160 -40 rgb2hsv;
#X text 123 17 hue;
#X text 240 -2 brightness;
#X obj 79 -77 - 0.7;
#X obj 76 -44 abs;
#X floatatom 75 -16 5 0 0 0 - - -;
#X obj 70 83 + 36;
#X obj 226 60 * 24;
#X obj 174 44 +;
#X obj 125 376 st-4tap;
#X obj 615 152 gemhead 9;
#X text 615 127 pixelated image;
#X obj 71 20 * 12;
#X obj 172 95 int;
#X floatatom 132 108 5 0 0 0 - - -;
#X obj 71 52 int;
#X obj 231 -47 colorbars;
#X obj 617 52 pix_image;
#X floatatom 913 -31 5 0 0 0 - - -;
#X obj 866 -75 gemkeyboard;
#X obj 866 -1 sel 18;
#X obj 949 3 sel 19;
#X msg 867 34 open 1.jpg;
#X msg 868 128 open 1pix.jpg;
#X obj 616 186 pix_image;
#X msg 960 127 open 2pix.jpg;
#X obj 1014 1 sel 20;
#X obj 1076 2 sel 21;
#X obj 1134 3 sel 23;
#X msg 1015 56 open 3.jpg;
#X msg 1062 31 open 4.jpg;
#X msg 1054 134 open 3pix.jpg;
#X msg 1099 105 open 4pix.jpg;
#X msg 1153 132 open 5pix.jpg;
#X msg 950 31 open 2.jpg;
#X msg 1145 30 open 5.jpg;
#X msg 625 -195 fullscreen 1 \, dimen 1280 720 \, create \, 1;
#X obj 346 155 loadbang;
#X obj 84 -208 leap_hand_c;
#X obj 188 -153 r handX;
#X obj 261 -143 r handY;
#X floatatom 305 -114 5 0 0 0 - - -;
#X floatatom 210 -123 5 0 0 0 - - -;
#X text 15 -189 leap hand and leap help have to be open too;
#X obj 352 -115 gemhead 25;
#X obj 332 91 circle 0.25;
#X obj 330 56 translateXYZ;
#X floatatom 381 29 5 0 0 0 - - -;
#X text 617 131 comment;
#X floatatom 346 31 5 0 0 0 - - -;
#X obj 344 -11 * 16;
#X obj 345 9 - 8;
#X obj 381 -16 * 9;
#X obj 380 9 - 4.5;
#X msg 419 63 draw line;
#X msg 426 87 width 3;
#X obj 446 38 loadbang;
#X obj 340 -78 colorRGB 1 1 1 1;
#X obj 364 280 clip~ -0.2 0.2;
#X obj -2 198 clip~ -0.2 0.2;
#X connect 2 0 3 0;
#X connect 3 0 2 0;
#X connect 6 0 7 0;
#X connect 8 0 2 1;
#X connect 9 0 10 0;
#X connect 9 0 11 0;
#X connect 11 0 8 0;
#X connect 12 1 40 0;
#X connect 12 1 56 0;
#X connect 13 0 12 0;
#X connect 15 0 57 0;
#X connect 18 0 29 0;
#X connect 18 0 31 0;
#X connect 19 0 53 0;
#X connect 20 0 18 0;
#X connect 21 0 49 0;
#X connect 21 1 49 1;
#X connect 22 0 21 0;
#X connect 22 1 21 1;
#X connect 23 0 2 1;
#X connect 24 0 12 1;
#X connect 25 0 24 0;
#X connect 27 0 28 0;
#X connect 28 0 32 0;
#X connect 29 0 22 1;
#X connect 29 0 98 0;
#X connect 30 0 29 1;
#X connect 31 0 22 0;
#X connect 31 0 99 0;
#X connect 32 0 31 1;
#X connect 36 0 39 0;
#X connect 36 1 38 0;
#X connect 36 2 37 0;
#X connect 37 0 47 0;
#X connect 39 0 43 0;
#X connect 40 0 36 0;
#X connect 43 0 44 0;
#X connect 44 0 45 0;
#X connect 45 0 52 0;
#X connect 46 0 48 0;
#X connect 47 0 48 1;
#X connect 48 0 19 0;
#X connect 49 0 17 0;
#X connect 49 1 17 1;
#X connect 50 0 64 0;
#X connect 52 0 55 0;
#X connect 53 0 54 0;
#X connect 54 0 20 0;
#X connect 55 0 46 0;
#X connect 57 0 14 0;
#X connect 59 0 58 0;
#X connect 59 0 60 0;
#X connect 59 0 61 0;
#X connect 59 0 66 0;
#X connect 59 0 67 0;
#X connect 59 0 68 0;
#X connect 60 0 62 0;
#X connect 60 0 63 0;
#X connect 61 0 74 0;
#X connect 61 0 65 0;
#X connect 62 0 57 0;
#X connect 63 0 64 0;
#X connect 64 0 24 0;
#X connect 65 0 64 0;
#X connect 66 0 69 0;
#X connect 66 0 71 0;
#X connect 67 0 70 0;
#X connect 67 0 72 0;
#X connect 68 0 75 0;
#X connect 68 0 73 0;
#X connect 69 0 57 0;
#X connect 70 0 57 0;
#X connect 71 0 64 0;
#X connect 72 0 64 0;
#X connect 73 0 64 0;
#X connect 74 0 57 0;
#X connect 75 0 57 0;
#X connect 76 0 2 1;
#X connect 77 0 25 0;
#X connect 79 0 27 0;
#X connect 79 0 12 2;
#X connect 79 0 82 0;
#X connect 79 0 90 0;
#X connect 80 0 12 3;
#X connect 80 0 30 0;
#X connect 80 0 81 0;
#X connect 80 0 92 0;
#X connect 84 0 97 0;
#X connect 86 0 85 0;
#X connect 87 0 86 2;
#X connect 89 0 86 1;
#X connect 90 0 91 0;
#X connect 91 0 89 0;
#X connect 92 0 93 0;
#X connect 93 0 87 0;
#X connect 94 0 85 0;
#X connect 95 0 85 0;
#X connect 96 0 95 0;
#X connect 96 0 94 0;
#X connect 97 0 86 0;
#X connect 98 0 22 1;
#X connect 99 0 22 0;
