#N canvas 0 22 450 300 10;
#X obj 62 53 colorRGB;
#X obj 57 -8 unpack 0 0 0;
#X obj 60 20 gemhead 11;
#X obj 58 -35 inlet;
#X obj 64 88 translateXYZ 0 -4 0;
#X obj 63 121 rectangle 8 0.25;
#X obj 81 160 translateXYZ 0 8 0;
#X obj 93 191 rectangle 8 0.25;
#X connect 0 0 4 0;
#X connect 0 0 6 0;
#X connect 1 0 0 1;
#X connect 1 1 0 2;
#X connect 1 2 0 3;
#X connect 2 0 0 0;
#X connect 3 0 1 0;
#X connect 4 0 5 0;
#X connect 6 0 7 0;
