#N canvas 1 77 529 468 10;
#X obj 128 154 unpack 0 0 0;
#X obj 128 263 unpack 0 0 0;
#X obj 127 317 unpack 0 0;
#X obj 128 122 route direction position velocity size;
#X obj 126 207 unpack 0 0 0;
#X obj 128 71 inlet;
#X obj 128 96 route \$1;
#X connect 3 0 0 0;
#X connect 3 1 4 0;
#X connect 3 2 1 0;
#X connect 3 3 2 0;
#X connect 5 0 6 0;
#X connect 6 0 3 0;
