#N canvas 1 77 683 558 10;
#X obj 159 150 color;
#X obj 159 278 translateXYZ;
#X obj 422 43 loadbang;
#X obj 159 97 gemhead;
#N canvas 402 279 450 363 leap 0;
#X obj 90 181 unpack 0 0 0;
#X obj 90 290 unpack 0 0 0;
#X obj 89 344 unpack 0 0;
#X obj 90 149 route direction position velocity size;
#X obj 96 226 unpack 0 0 0;
#X obj 90 123 route \$2;
#X obj 235 255 s \$1_\$2finger_z;
#X obj 237 282 s \$1_\$2finger_y;
#X obj 237 306 s \$1_\$2finger_x;
#X obj 91 9 inlet;
#X connect 3 0 0 0;
#X connect 3 1 4 0;
#X connect 3 2 1 0;
#X connect 3 3 2 0;
#X connect 4 0 8 0;
#X connect 4 1 7 0;
#X connect 4 2 6 0;
#X connect 5 0 3 0;
#X connect 9 0 5 0;
#X restore 37 89 pd leap;
#N canvas 528 117 450 300 leap2gem 0;
#X obj 18 36 r \$1_\$2finger_x;
#X obj 255 34 r \$1_\$2finger_y;
#X obj 20 180 r \$1_\$2finger_z;
#X obj 20 121 s \$1_\$2_g_finger_x;
#X obj 245 202 s \$1_\$2_g_finger_y;
#X obj 27 269 s \$1_\$2_g_finger_z;
#X obj 24 86 * 0.02;
#X obj 57 64 r xgem_factor;
#X obj 324 68 r ygem_factor;
#X obj 65 233 * 0.02;
#X obj 98 211 r zgem_factor;
#X obj 311 141 * 0.02;
#X obj 228 105 - 150;
#X connect 0 0 6 0;
#X connect 1 0 12 0;
#X connect 2 0 9 0;
#X connect 6 0 3 0;
#X connect 7 0 6 1;
#X connect 8 0 11 1;
#X connect 9 0 5 0;
#X connect 10 0 9 1;
#X connect 11 0 4 0;
#X connect 12 0 11 0;
#X restore 37 162 pd leap2gem;
#X text 386 17 arg1->hand \, arg2->finger;
#X obj 422 105 float \$2;
#X obj 507 97 float \$1;
#X obj 182 174 r \$1_\$2_g_finger_x;
#X obj 205 200 r \$1_\$2_g_finger_y;
#X obj 228 230 r \$1_\$2_g_finger_z;
#X obj 37 25 r \$1_fingers;
#X floatatom 66 52 5 0 0 0 - - -;
#X obj 159 56 r \$1_\$2_finger_on;
#X obj 416 177 s \$1_\$2_gfinger_id;
#X obj 526 138 s \$1_\$2_handid;
#X obj 159 122 separator;
#X obj 415 328 r finger_lines_on;
#N canvas 346 296 450 300 lines 0;
#X obj 43 242 curve 2;
#X obj 51 23 inlet;
#X msg 229 204 \$1 \$2 \$3;
#X obj 289 17 r \$1g_palm_x;
#X obj 311 42 r \$1g_palm_y;
#X obj 334 72 r \$1g_palm_z;
#X obj 267 113 pack f f f;
#X obj 86 59 r \$1_\$2_g_finger_x;
#X obj 109 85 r \$1_\$2_g_finger_y;
#X obj 132 115 r \$1_\$2_g_finger_z;
#X msg 88 213 \$1 \$2 \$3;
#X obj 100 169 pack f f f;
#X connect 1 0 0 0;
#X connect 2 0 0 2;
#X connect 3 0 6 0;
#X connect 4 0 6 1;
#X connect 5 0 6 2;
#X connect 6 0 2 0;
#X connect 7 0 11 0;
#X connect 8 0 11 1;
#X connect 9 0 11 2;
#X connect 10 0 0 1;
#X connect 11 0 10 0;
#X restore 414 439 pd lines;
#X obj 414 378 gemhead;
#X obj 184 373 gemlist_info;
#X obj 446 407 spigot;
#X obj 487 380 r \$1_\$2_finger_on;
#X obj 159 322 sphere 0.2 16;
#X obj 284 121 r \$1_hand_color;
#X connect 0 0 1 0;
#X connect 1 0 24 0;
#X connect 2 0 7 0;
#X connect 2 0 8 0;
#X connect 3 0 17 0;
#X connect 7 0 15 0;
#X connect 8 0 16 0;
#X connect 9 0 1 1;
#X connect 10 0 1 2;
#X connect 11 0 1 3;
#X connect 12 0 4 0;
#X connect 12 0 13 0;
#X connect 14 0 3 0;
#X connect 17 0 0 0;
#X connect 18 0 20 0;
#X connect 20 0 22 0;
#X connect 22 0 19 0;
#X connect 23 0 22 1;
#X connect 24 0 21 0;
#X connect 25 0 0 1;
