#N canvas 1 77 662 507 10;
#X text 162 25 arg1->hand id;
#X obj 103 77 r hand;
#X text 160 101 hand0;
#X obj 103 106 route \$1;
#X obj 104 237 s \$1_finger_count;
#X obj 179 210 s \$1_fingers;
#X obj 343 119 select 0 1 2 3 4 5;
#N canvas 247 224 450 300 0fingers 0;
#X msg 110 76 0;
#X obj 108 32 inlet;
#X obj -4 114 s \$1_0_finger_on;
#X obj 52 139 s \$1_1_finger_on;
#X obj 169 139 s \$1_2_finger_on;
#X obj 197 106 s \$1_3_finger_on;
#X obj 305 107 s \$1_4_finger_on;
#X obj 213 39 inlet;
#X connect 0 0 2 0;
#X connect 0 0 3 0;
#X connect 0 0 4 0;
#X connect 0 0 5 0;
#X connect 0 0 6 0;
#X connect 1 0 0 0;
#X connect 7 0 0 0;
#X restore 336 344 pd 0fingers;
#X obj 343 80 r \$1_finger_count;
#N canvas 249 225 450 300 1fingers 0;
#X msg 110 76 0;
#X obj 108 32 inlet;
#X obj -4 114 s \$1_0_finger_on;
#X obj 52 139 s \$1_1_finger_on;
#X obj 169 139 s \$1_2_finger_on;
#X obj 197 106 s \$1_3_finger_on;
#X obj 305 107 s \$1_4_finger_on;
#X msg 32 65 1;
#X connect 0 0 3 0;
#X connect 0 0 4 0;
#X connect 0 0 5 0;
#X connect 0 0 6 0;
#X connect 1 0 0 0;
#X connect 1 0 7 0;
#X connect 7 0 2 0;
#X restore 360 239 pd 1fingers;
#N canvas 245 223 450 300 2fingers 0;
#X msg 110 76 0;
#X obj 108 32 inlet;
#X obj -4 114 s \$1_0_finger_on;
#X obj 52 139 s \$1_1_finger_on;
#X obj 169 139 s \$1_2_finger_on;
#X obj 197 106 s \$1_3_finger_on;
#X obj 305 107 s \$1_4_finger_on;
#X msg 32 65 1;
#X connect 0 0 4 0;
#X connect 0 0 5 0;
#X connect 0 0 6 0;
#X connect 1 0 0 0;
#X connect 1 0 7 0;
#X connect 7 0 2 0;
#X connect 7 0 3 0;
#X restore 377 217 pd 2fingers;
#N canvas 245 223 450 300 3fingers 0;
#X msg 110 76 0;
#X obj 108 32 inlet;
#X obj -4 114 s \$1_0_finger_on;
#X obj 52 139 s \$1_1_finger_on;
#X obj 169 139 s \$1_2_finger_on;
#X obj 197 106 s \$1_3_finger_on;
#X obj 305 107 s \$1_4_finger_on;
#X msg 32 65 1;
#X connect 0 0 5 0;
#X connect 0 0 6 0;
#X connect 1 0 0 0;
#X connect 1 0 7 0;
#X connect 7 0 2 0;
#X connect 7 0 3 0;
#X connect 7 0 4 0;
#X restore 394 197 pd 3fingers;
#N canvas 243 222 450 300 4fingers 0;
#X msg 110 76 0;
#X obj 108 32 inlet;
#X obj -4 114 s \$1_0_finger_on;
#X obj 52 139 s \$1_1_finger_on;
#X obj 169 139 s \$1_2_finger_on;
#X obj 197 106 s \$1_3_finger_on;
#X obj 305 107 s \$1_4_finger_on;
#X msg 32 65 1;
#X connect 0 0 6 0;
#X connect 1 0 0 0;
#X connect 1 0 7 0;
#X connect 7 0 2 0;
#X connect 7 0 3 0;
#X connect 7 0 4 0;
#X connect 7 0 5 0;
#X restore 411 176 pd 4fingers;
#N canvas 241 221 450 300 5fingers 0;
#X obj 108 32 inlet;
#X obj -4 114 s \$1_0_finger_on;
#X obj 52 139 s \$1_1_finger_on;
#X obj 169 139 s \$1_2_finger_on;
#X obj 197 106 s \$1_3_finger_on;
#X obj 305 107 s \$1_4_finger_on;
#X msg 32 65 1;
#X connect 0 0 6 0;
#X connect 6 0 1 0;
#X connect 6 0 2 0;
#X connect 6 0 3 0;
#X connect 6 0 4 0;
#X connect 6 0 5 0;
#X restore 434 151 pd 5fingers;
#X obj 206 178 s \$1_palm;
#X obj 103 137 route finger_count fingers palm_position;
#X obj 132 303 g_finger \$1 0;
#X obj 135 330 g_finger \$1 1;
#X obj 137 358 g_finger \$1 2;
#X obj 133 383 g_finger \$1 3;
#X obj 134 407 g_finger \$1 4;
#X obj 225 305 g_palm \$1;
#X obj 467 339 select 0 1 2;
#X msg 438 369 1 0 0;
#X msg 486 368 0 1 0;
#X obj 500 202 loadbang;
#X obj 500 240 float \$1;
#X obj 440 418 s \$1_hand_color;
#X obj 370 262 r \$1hand_on;
#X obj 367 287 select 0;
#X obj 343 381 s \$1_palm_on;
#X msg 536 370 0 0 1;
#X connect 1 0 3 0;
#X connect 3 0 15 0;
#X connect 6 0 7 0;
#X connect 6 1 9 0;
#X connect 6 2 10 0;
#X connect 6 3 11 0;
#X connect 6 4 12 0;
#X connect 6 5 13 0;
#X connect 8 0 6 0;
#X connect 15 0 4 0;
#X connect 15 1 5 0;
#X connect 15 2 14 0;
#X connect 22 0 23 0;
#X connect 22 1 24 0;
#X connect 22 2 31 0;
#X connect 23 0 27 0;
#X connect 24 0 27 0;
#X connect 25 0 26 0;
#X connect 26 0 22 0;
#X connect 28 0 29 0;
#X connect 28 0 30 0;
#X connect 29 0 7 1;
#X connect 31 0 27 0;
