#N canvas 1 77 650 588 10;
#X obj 159 150 color;
#X obj 159 278 translateXYZ;
#X obj 422 43 loadbang;
#X obj 177 39 gemhead;
#N canvas 117 261 450 363 leap 0;
#X obj 96 226 unpack 0 0 0;
#X obj 91 9 inlet;
#X obj 235 255 s \$1palm_z;
#X obj 237 282 s \$1palm_y;
#X obj 238 305 s \$1palm_x;
#X connect 0 0 4 0;
#X connect 0 1 3 0;
#X connect 0 2 2 0;
#X connect 1 0 0 0;
#X restore 37 89 pd leap;
#N canvas 100 152 450 300 leap2gem 0;
#X obj 24 86 * 0.02;
#X obj 57 64 r xgem_factor;
#X obj 324 68 r ygem_factor;
#X obj 65 233 * 0.02;
#X obj 98 211 r zgem_factor;
#X obj 311 141 * 0.02;
#X obj 228 105 - 150;
#X obj 18 36 r \$1palm_x;
#X obj 255 34 r \$1palm_y;
#X obj 20 121 s \$1g_palm_x;
#X obj 20 180 r \$1palm_z;
#X obj 245 202 s \$1g_palm_y;
#X obj 27 269 s \$1g_palm_z;
#X connect 0 0 9 0;
#X connect 1 0 0 1;
#X connect 2 0 5 1;
#X connect 3 0 12 0;
#X connect 4 0 3 1;
#X connect 5 0 11 0;
#X connect 6 0 5 0;
#X connect 7 0 0 0;
#X connect 8 0 6 0;
#X connect 10 0 3 0;
#X restore 37 162 pd leap2gem;
#X text 386 17 arg1->hand \, arg2->palm;
#X obj 507 97 float \$1;
#X floatatom 66 52 5 0 0 0 - - -;
#X obj 176 124 separator;
#X obj 37 25 r \$1_palm;
#X obj 177 8 r \$1_palm_on;
#X obj 183 175 r \$1g_palm_x;
#X obj 205 200 r \$1g_palm_y;
#X obj 228 230 r \$1g_palm_z;
#X obj 526 138 s \$1handid;
#X obj 266 86 r palm_on;
#X obj 159 322 sphere 0.3 16;
#X obj 271 124 r \$1_hand_color;
#X obj 193 79 spigot;
#X connect 0 0 1 0;
#X connect 1 0 17 0;
#X connect 2 0 7 0;
#X connect 3 0 19 0;
#X connect 7 0 15 0;
#X connect 9 0 0 0;
#X connect 10 0 4 0;
#X connect 10 0 8 0;
#X connect 11 0 3 0;
#X connect 12 0 1 1;
#X connect 13 0 1 2;
#X connect 14 0 1 3;
#X connect 16 0 19 1;
#X connect 18 0 0 1;
#X connect 19 0 9 0;
