#N canvas 1 77 450 300 10;
#N canvas 595 410 493 241 axe3D 0;
#X obj 192 54 loadbang;
#X obj 48 89 inlet;
#X obj 48 221 curve 2;
#X obj 48 142 color 1 0 0;
#X obj 48 305 curve 2;
#X obj 48 387 curve 2;
#X obj 48 256 color 0 1 0;
#X obj 48 338 color 0 0 1;
#X obj 48 116 gemhead;
#X msg 192 87 width 5;
#X obj 230 145 loadbang;
#X msg 129 191 4 0 0;
#X msg 71 191 -4 0 0;
#X msg 71 280 0 -4 0;
#X msg 127 280 0 4 0;
#X msg 127 362 0 0 4;
#X msg 71 362 0 0 -4;
#X msg 116 90 0;
#X obj -16 121 s camera;
#X obj 266 592 f;
#X obj 187 573 spigot;
#X obj 248 564 sel 0 1;
#X obj 218 545 t f f;
#X obj 187 621 -;
#X obj 187 670 +;
#X obj 248 634 f;
#X obj 140 589 f;
#X obj 61 570 spigot;
#X obj 122 561 sel 0 1;
#X obj 92 542 t f f;
#X obj 61 621 -;
#X obj 61 670 +;
#X obj 122 631 f;
#X obj 387 583 f;
#X obj 308 567 spigot;
#X obj 369 558 sel 0 1;
#X obj 339 539 t f f;
#X obj 308 618 -;
#X obj 369 628 f;
#X obj 61 886 * 4;
#X obj 116 888 * 4;
#X obj 137 729 t b f;
#X obj 75 793 cos;
#X obj 87 851 * 1;
#X obj 61 851 * 1;
#X obj 113 794 sin;
#X obj 88 887 * 4;
#X obj 75 815 t b f;
#X obj 75 769 / 200;
#X obj 61 912 pack f f f;
#X obj 179 429 gemmouse;
#X obj 496 556 t b f;
#X obj 496 585 |;
#X obj 234 668 loadbang;
#X msg 61 937 view \$1 \$2 \$3 0 0 0 0 1 0;
#X obj 61 729 sin;
#X obj 87 730 cos;
#X obj 308 667 + 200;
#X obj 138 703 / 50;
#X obj 61 704 / -200;
#X obj 61 998 gemwin \$1;
#X msg 190 865 0 0 4;
#X obj 192 797 r camera;
#X obj 61 967 spigot;
#X obj 192 828 t f b;
#X obj 334 207 text3d AxeX;
#X obj 334 150 colorRGB 1 0 0;
#X msg 456 231 6;
#X obj 456 205 loadbang;
#X obj 334 179 translateXYZ 1.5 0.3 0;
#X obj 334 292 text3d AxeY;
#X obj 334 239 colorRGB 0 1 0;
#X obj 334 264 translateXYZ -2.1 1.5 0;
#X obj 334 372 text3d AxeZ;
#X obj 334 344 translateXYZ 0.5 -1.5 2;
#X obj 334 319 colorRGB 0 0 1;
#X text 5 9 PATCH D'ILLUSTRATION \, A NE PAS REGARDER \, JUSTE POUR
EXEMPLE :);
#X connect 0 0 9 0;
#X connect 0 0 17 0;
#X connect 1 0 8 0;
#X connect 1 0 18 0;
#X connect 2 0 6 0;
#X connect 3 0 2 0;
#X connect 4 0 7 0;
#X connect 5 0 66 0;
#X connect 6 0 4 0;
#X connect 7 0 5 0;
#X connect 8 0 3 0;
#X connect 9 0 2 0;
#X connect 9 0 4 0;
#X connect 9 0 5 0;
#X connect 10 0 11 0;
#X connect 10 0 12 0;
#X connect 10 0 14 0;
#X connect 10 0 13 0;
#X connect 10 0 15 0;
#X connect 10 0 16 0;
#X connect 11 0 2 2;
#X connect 12 0 2 1;
#X connect 13 0 4 1;
#X connect 14 0 4 2;
#X connect 15 0 5 2;
#X connect 16 0 5 1;
#X connect 17 0 8 0;
#X connect 19 0 23 1;
#X connect 20 0 23 0;
#X connect 21 0 25 0;
#X connect 21 1 19 0;
#X connect 22 0 20 1;
#X connect 22 1 21 0;
#X connect 23 0 24 0;
#X connect 24 0 25 1;
#X connect 24 0 48 0;
#X connect 25 0 24 1;
#X connect 26 0 30 1;
#X connect 27 0 30 0;
#X connect 28 0 32 0;
#X connect 28 1 26 0;
#X connect 29 0 27 1;
#X connect 29 1 28 0;
#X connect 30 0 31 0;
#X connect 31 0 32 1;
#X connect 31 0 59 0;
#X connect 32 0 31 1;
#X connect 33 0 37 1;
#X connect 34 0 37 0;
#X connect 35 0 38 0;
#X connect 35 1 33 0;
#X connect 36 0 34 1;
#X connect 36 1 35 0;
#X connect 37 0 57 0;
#X connect 38 0 57 1;
#X connect 39 0 49 0;
#X connect 40 0 49 2;
#X connect 41 0 40 0;
#X connect 41 0 39 0;
#X connect 41 0 46 0;
#X connect 41 1 40 1;
#X connect 41 1 39 1;
#X connect 41 1 46 1;
#X connect 42 0 47 0;
#X connect 43 0 40 0;
#X connect 44 0 39 0;
#X connect 45 0 46 0;
#X connect 46 0 49 1;
#X connect 47 0 43 0;
#X connect 47 0 44 0;
#X connect 47 1 43 1;
#X connect 47 1 44 1;
#X connect 48 0 42 0;
#X connect 48 0 45 0;
#X connect 49 0 54 0;
#X connect 50 0 27 0;
#X connect 50 0 26 1;
#X connect 50 1 20 0;
#X connect 50 1 19 1;
#X connect 50 1 33 1;
#X connect 50 1 34 0;
#X connect 50 2 22 0;
#X connect 50 2 29 0;
#X connect 50 2 52 0;
#X connect 50 3 36 0;
#X connect 50 3 51 0;
#X connect 51 0 52 0;
#X connect 51 1 52 1;
#X connect 53 0 59 0;
#X connect 53 0 57 0;
#X connect 54 0 63 0;
#X connect 55 0 44 0;
#X connect 56 0 43 0;
#X connect 57 0 38 1;
#X connect 57 0 58 0;
#X connect 58 0 41 0;
#X connect 59 0 55 0;
#X connect 59 0 56 0;
#X connect 61 0 54 0;
#X connect 62 0 64 0;
#X connect 63 0 60 0;
#X connect 64 0 63 1;
#X connect 64 1 61 0;
#X connect 65 0 71 0;
#X connect 66 0 69 0;
#X connect 67 0 65 1;
#X connect 67 0 70 1;
#X connect 67 0 73 1;
#X connect 68 0 67 0;
#X connect 69 0 65 0;
#X connect 70 0 75 0;
#X connect 71 0 72 0;
#X connect 72 0 70 0;
#X connect 74 0 73 0;
#X connect 75 0 74 0;
#X restore 279 78 pd axe3D;
#N canvas 338 106 682 322 gemwin 0;
#X obj 102 122 tgl 15 0 \$0-gemstart \$0-gemstart empty 17 7 0 10 -262144
-1 -1 1 1;
#X obj 102 161 r \$0-gemstart;
#X obj 102 182 select 1 0;
#X msg 102 214 create \, 1;
#X msg 177 215 destroy;
#X obj 102 239 t a;
#X obj 318 54 inlet;
#X obj 318 255 gemwin;
#X obj 318 100 t a a;
#X obj 318 287 outlet;
#X obj 350 128 route create destroy;
#X obj 350 150 t b;
#X msg 350 172 1;
#X obj 390 150 t b;
#X msg 390 172 0;
#X obj 350 195 t f;
#X msg 350 219 set \$1;
#X text 118 122 rendering;
#X connect 1 0 2 0;
#X connect 2 0 3 0;
#X connect 2 1 4 0;
#X connect 3 0 5 0;
#X connect 4 0 5 0;
#X connect 5 0 8 0;
#X connect 6 0 8 0;
#X connect 7 0 9 0;
#X connect 8 0 7 0;
#X connect 8 1 10 0;
#X connect 10 0 11 0;
#X connect 10 1 13 0;
#X connect 11 0 12 0;
#X connect 12 0 15 0;
#X connect 13 0 14 0;
#X connect 14 0 15 0;
#X connect 15 0 16 0;
#X connect 16 0 0 0;
#X coords 0 -1 1 1 85 40 1 100 100;
#X restore 49 49 pd gemwin;
#X obj 283 43 tgl 15 0 empty empty xyz_axis 17 7 0 10 -262144 -1 -1
0 1;
#X obj 115 145 tgl 15 0 empty empty empty 17 7 0 10 -262144 -1 -1 0
1;
#X obj 115 169 s 1_g_finger_on;
#X obj 113 201 g_finger 1;
#X connect 2 0 0 0;
#X connect 3 0 4 0;
