#N canvas 1 77 706 482 10;
#X obj 161 35 gemhead;
#X obj 162 129 separator;
#X obj 159 251 rotateXYZ 90 0 0;
#X obj 161 175 separator;
#N canvas 309 216 450 300 grid2 0;
#X msg 227 118 draw line;
#X msg 356 173 grid \$1;
#X floatatom 356 155 5 0 0 0 - - -;
#X floatatom 419 141 5 0 0 0 - - -;
#X msg 198 85 grid 24;
#X msg 299 85 3;
#X obj 218 44 loadbang;
#X obj 51 14 inlet;
#X obj 48 270 mesh_square 4 4;
#X obj 197 233 mesh_square 4 4;
#X obj 50 115 color 1 1 1;
#X obj 11 191 rotateXYZ 0 0 90;
#X obj 54 150 separator;
#X connect 0 0 8 0;
#X connect 0 0 9 0;
#X connect 1 0 8 0;
#X connect 1 0 9 0;
#X connect 2 0 1 0;
#X connect 3 0 8 1;
#X connect 3 0 9 1;
#X connect 4 0 8 0;
#X connect 4 0 9 0;
#X connect 5 0 8 1;
#X connect 5 0 9 1;
#X connect 6 0 4 0;
#X connect 6 0 0 0;
#X connect 6 0 5 0;
#X connect 7 0 10 0;
#X connect 10 0 9 0;
#X connect 10 0 12 0;
#X connect 11 0 8 0;
#X connect 12 0 11 0;
#X restore 336 285 pd grid2;
#X obj 336 229 separator;
#X floatatom 195 67 5 0 0 0 - - -;
#X floatatom 224 69 5 0 0 0 - - -;
#X floatatom 260 73 5 0 0 0 - - -;
#N canvas 309 216 450 300 grid1 0;
#X msg 227 118 draw line;
#X msg 356 173 grid \$1;
#X floatatom 356 155 5 0 0 0 - - -;
#X floatatom 419 141 5 0 0 0 - - -;
#X msg 198 85 grid 24;
#X msg 299 85 3;
#X obj 218 44 loadbang;
#X obj 51 14 inlet;
#X obj 48 270 mesh_square 4 4;
#X obj 197 233 mesh_square 4 4;
#X obj 50 115 color 1 1 1;
#X obj 11 191 rotateXYZ 0 0 90;
#X obj 54 150 separator;
#X connect 0 0 8 0;
#X connect 0 0 9 0;
#X connect 1 0 8 0;
#X connect 1 0 9 0;
#X connect 2 0 1 0;
#X connect 3 0 8 1;
#X connect 3 0 9 1;
#X connect 4 0 8 0;
#X connect 4 0 9 0;
#X connect 5 0 8 1;
#X connect 5 0 9 1;
#X connect 6 0 4 0;
#X connect 6 0 0 0;
#X connect 6 0 5 0;
#X connect 7 0 10 0;
#X connect 10 0 9 0;
#X connect 10 0 12 0;
#X connect 11 0 8 0;
#X connect 12 0 11 0;
#X restore 158 288 pd grid1;
#X obj 336 255 translateXYZ 0 0 -3;
#X obj 164 219 translateXYZ 0 -3 0;
#X obj 162 104 translateXYZ 0 0 0;
#X connect 0 0 12 0;
#X connect 1 0 3 0;
#X connect 1 0 5 0;
#X connect 2 0 9 0;
#X connect 3 0 11 0;
#X connect 5 0 10 0;
#X connect 6 0 12 1;
#X connect 7 0 12 2;
#X connect 8 0 12 3;
#X connect 10 0 4 0;
#X connect 11 0 2 0;
#X connect 12 0 1 0;
