#N canvas 190 282 1040 406 10;
#X obj 14 -24 leap_motion_help;
#X obj 136 6 route 0;
#X obj 137 60 unpack x y z;
#X floatatom 126 89 5 0 0 0 - - -;
#X floatatom 168 91 5 0 0 0 - - -;
#X floatatom 220 94 5 0 0 0 - - -;
#X obj 136 34 route palm_position;
#X text 202 -20 y: 20-500;
#X text 202 5 x: -250-250;
#X obj 188 139 / 500;
#X floatatom 193 170 5 0 0 0 - - -;
#X obj 121 127 + 250;
#X obj 123 154 / 500;
#X floatatom 125 183 5 0 0 0 - - -;
#X obj 125 212 clip 0 1;
#X obj 200 201 clip 0 1;
#X floatatom 126 239 5 0 0 0 - - -;
#X floatatom 222 237 5 0 0 0 - - -;
#X obj 136 -21 r hand;
#X obj 128 272 s handX;
#X obj 228 281 s handY;
#X obj 173 114 - 20;
#X obj 367 82 symbol;
#X symbolatom 367 114 10 0 0 0 type: - -;
#X obj 368 -8 r gesture;
#X obj 365 48 route type state duration id;
#X obj 373 18 route 0;
#X obj 371 146 select TYPE_SWIPE;
#X obj 378 184 bng 15 250 50 0 empty empty empty 17 7 0 10 -262144
-1 -1;
#X obj 319 178 > 0;
#X floatatom 321 207 5 0 0 0 - - -;
#X obj 330 243 f;
#X floatatom 336 289 5 0 0 0 - - -;
#X connect 1 0 6 0;
#X connect 2 0 3 0;
#X connect 2 0 29 0;
#X connect 2 1 4 0;
#X connect 2 2 5 0;
#X connect 3 0 11 0;
#X connect 4 0 21 0;
#X connect 6 0 2 0;
#X connect 9 0 10 0;
#X connect 10 0 15 0;
#X connect 11 0 12 0;
#X connect 12 0 13 0;
#X connect 13 0 14 0;
#X connect 14 0 16 0;
#X connect 15 0 17 0;
#X connect 16 0 19 0;
#X connect 17 0 20 0;
#X connect 18 0 1 0;
#X connect 21 0 9 0;
#X connect 22 0 23 0;
#X connect 23 0 27 0;
#X connect 24 0 26 0;
#X connect 25 0 22 0;
#X connect 26 0 25 0;
#X connect 27 0 28 0;
#X connect 28 0 31 0;
#X connect 29 0 30 0;
#X connect 30 0 31 1;
#X connect 31 0 32 0;
