#N canvas 1 143 812 516 10;
#X obj 89 245 bng 15 250 50 0 empty empty empty 17 7 0 10 -262144 -1
-1;
#X obj 89 181 tgl 30 0 empty empty empty 17 7 0 10 -262144 -1 -1 0
1;
#X obj 89 219 metro 50;
#X msg 145 219 info;
#X obj 187 291 leapmotion;
#X obj 215 331 route hand tool;
#N canvas 321 77 793 547 flags 0;
#X obj 109 135 tgl 15 0 empty to_general general 17 7 0 10 -262144
-1 -1 0 1;
#X obj 109 177 tgl 15 0 empty to_palm_position palm_position 17 7 0
10 -262144 -1 -1 0 1;
#X obj 110 312 tgl 15 0 empty to_fingers_position position 17 7 0 10
-262144 -1 -1 0 1;
#X obj 219 164 tgl 15 0 empty to_tools_position position 17 7 0 10
-262144 -1 -1 0 1;
#X obj 110 344 tgl 15 0 empty to_fingers_size size 17 7 0 10 -262144
-1 -1 0 1;
#X obj 219 196 tgl 15 0 empty to_tools_size size 17 7 0 10 -262144
-1 -1 0 1;
#X obj 219 180 tgl 15 0 empty to_tools_velocity velocity 17 7 0 10
-262144 -1 -1 0 1;
#X obj 110 328 tgl 15 0 empty to_fingers_velocity velocity 17 7 0 10
-262144 -1 -1 0 1;
#X obj 109 162 tgl 15 0 empty to_direction direction 17 7 0 10 -262144
-1 -1 0 1;
#X obj 109 220 tgl 15 0 empty to_sphere_radius sphere_radius 17 7 0
10 -262144 -1 -1 0 1;
#X obj 109 235 tgl 15 0 empty to_sphere_center sphere_center 17 7 0
10 -262144 -1 -1 0 1;
#X obj 109 250 tgl 15 0 empty to_finger_count finger_count 17 7 0 10
-262144 -1 -1 0 1;
#X obj 109 265 tgl 15 0 empty to_tool_count tool_count 17 7 0 10 -262144
-1 -1 0 1;
#X obj 109 191 tgl 15 0 empty to_palm_velocity palm_velocity 17 7 0
10 -262144 -1 -1 0 1;
#X obj 109 206 tgl 15 0 empty to_palm_normal palm_normal 17 7 0 10
-262144 -1 -1 0 1;
#X obj -49 463 outlet;
#X msg -49 133 general \$1;
#X msg -50 177 hands_direction \$1;
#X msg -48 236 hands_sphere_radius \$1;
#X msg -48 251 hands_sphere_center \$1;
#X msg -48 266 hands_finger_count \$1;
#X msg -48 280 hands_tool_count \$1;
#X msg -50 192 hands_palm_position \$1;
#X msg -49 206 hands_palm_velocity \$1;
#X msg -48 220 hands_palm_normal \$1;
#X msg -49 359 fingers_size \$1;
#X obj 359 427 list prepend gestures;
#X obj 359 450 list trim;
#X msg 356 210 tools_size \$1;
#X msg -49 327 fingers_position \$1;
#X msg -49 345 fingers_velocity \$1;
#X msg 356 179 tools_position \$1;
#X msg 356 194 tools_velocity \$1;
#X msg 359 312 TYPE_CIRCLE \$1;
#X msg 359 343 TYPE_KEY_TAP \$1;
#X msg 359 358 TYPE_SCREEN_TAP \$1;
#X msg 359 328 TYPE_SWIPE \$1;
#X obj 220 296 tgl 15 0 empty to_gestures_circle circle 17 7 0 10 -262144
-1 -1 0 1;
#X obj 220 326 tgl 15 0 empty to_gestures_key_tap key_tap 17 7 0 10
-262144 -1 -1 0 1;
#X obj 220 341 tgl 15 0 empty to_gestures_screen_tap screen_tap 17
7 0 10 -262144 -1 -1 0 1;
#X obj 220 311 tgl 15 0 empty to_gestures_swipe swipe 17 7 0 10 -262144
-1 -1 0 1;
#X obj 110 299 tgl 15 0 empty to_fingers_direction direction 17 7 0
10 -262144 -1 -1 0 1;
#X msg -49 310 fingers_direction \$1;
#X text 108 147 hands;
#X text 108 279 fingers;
#X text 218 277 gestures;
#X text 218 131 tools;
#X obj 219 148 tgl 15 0 empty to_tools_direction direction 17 7 0 10
-262144 -1 -1 0 1;
#X msg 356 163 tools_direction \$1;
#X obj 218 110 tgl 15 0 empty empty all_on/off 17 7 0 10 -258113 -1
-1 0 1;
#X msg 544 128 \; to_general \$1 \; to_direction \$1 \; to_palm_position
\$1 \; to_palm_velocity \$1 \; to_palm_normal \$1 \; to_sphere_radius
\$1 \; to_sphere_center \$1 \; to_finger_count \$1 \; to_tool_count
\$1 \; to_fingers_direction \$1 \; to_fingers_position \$1 \; to_fingers_velocity
\$1 \; to_fingers_size \$1 \; to_tools_direction \$1 \; to_tools_position
\$1 \; to_tools_velocity \$1 \; to_tools_size \$1 \; to_gestures_circle
\$1 \; to_gestures_swipe \$1 \; to_gestures_key_tap \$1 \; to_gestures_screen_tap
\$1 \;;
#X connect 0 0 16 0;
#X connect 1 0 22 0;
#X connect 2 0 29 0;
#X connect 3 0 31 0;
#X connect 4 0 25 0;
#X connect 5 0 28 0;
#X connect 6 0 32 0;
#X connect 7 0 30 0;
#X connect 8 0 17 0;
#X connect 9 0 18 0;
#X connect 10 0 19 0;
#X connect 11 0 20 0;
#X connect 12 0 21 0;
#X connect 13 0 23 0;
#X connect 14 0 24 0;
#X connect 16 0 15 0;
#X connect 17 0 15 0;
#X connect 18 0 15 0;
#X connect 19 0 15 0;
#X connect 20 0 15 0;
#X connect 21 0 15 0;
#X connect 22 0 15 0;
#X connect 23 0 15 0;
#X connect 24 0 15 0;
#X connect 25 0 15 0;
#X connect 26 0 27 0;
#X connect 27 0 15 0;
#X connect 28 0 15 0;
#X connect 29 0 15 0;
#X connect 30 0 15 0;
#X connect 31 0 15 0;
#X connect 32 0 15 0;
#X connect 33 0 26 0;
#X connect 34 0 26 0;
#X connect 35 0 26 0;
#X connect 36 0 26 0;
#X connect 37 0 33 0;
#X connect 38 0 34 0;
#X connect 39 0 35 0;
#X connect 40 0 36 0;
#X connect 41 0 42 0;
#X connect 42 0 15 0;
#X connect 47 0 48 0;
#X connect 48 0 15 0;
#X connect 49 0 50 0;
#X coords 0 -1 1 1 250 270 1 100 100;
#X restore 188 -6 pd flags;
#X obj 122 378 gesture 0;
#X obj 297 308 s gesture;
#N canvas 409 77 450 300 general 0;
#X obj 169 75 unpack 0 0 0 0 0 0;
#X floatatom 169 122 10 0 0 0 frameID - -;
#X floatatom 169 142 10 0 0 0 timestamp - -;
#X floatatom 169 162 5 0 0 0 hands - -;
#X floatatom 169 182 5 0 0 0 fingers - -;
#X floatatom 169 202 5 0 0 0 tools - -;
#X floatatom 169 222 5 0 0 0 gestures - -;
#X obj 169 49 r general;
#X obj 315 168 s hands_count;
#X obj 314 209 s fingers_count;
#X connect 0 0 1 0;
#X connect 0 1 2 0;
#X connect 0 2 3 0;
#X connect 0 2 8 0;
#X connect 0 3 4 0;
#X connect 0 3 9 0;
#X connect 0 4 5 0;
#X connect 0 5 6 0;
#X connect 7 0 0 0;
#X coords 0 -1 1 1 150 140 1 100 100;
#X restore 35 -6 pd general;
#X obj 215 356 s hand;
#X obj 113 308 s general;
#X obj 260 355 s tool;
#N canvas 732 285 561 383 hand0 0;
#X obj 3 -1334 hand 0;
#X restore 46 403 pd hand0;
#N canvas 294 199 540 355 hand1 0;
#X obj -5154 -3877 hand 1;
#X restore 48 430 pd hand1;
#N canvas 363 288 450 300 tool 0;
#N canvas 698 164 615 451 tool 0;
#X obj 299 63 r tool;
#X obj 167 120 point 0;
#X obj 229 120 point 1;
#X obj 291 120 point 2;
#X obj 353 120 point 3;
#X obj 415 120 point 4;
#X text 104 133 direction;
#X text 104 187 position;
#X text 104 241 velocity;
#X text 104 295 size;
#X connect 0 0 1 0;
#X connect 0 0 2 0;
#X connect 0 0 3 0;
#X connect 0 0 4 0;
#X connect 0 0 5 0;
#X coords 0 -1 1 1 380 250 1 100 100;
#X restore -171 12 pd tool;
#X restore 46 364 pd tool;
#N canvas 583 404 493 322 axe3D 0;
#X obj 192 54 loadbang;
#X obj 48 89 inlet;
#X obj 48 221 curve 2;
#X obj 48 142 color 1 0 0;
#X obj 48 305 curve 2;
#X obj 48 387 curve 2;
#X obj 48 256 color 0 1 0;
#X obj 48 338 color 0 0 1;
#X obj 48 116 gemhead;
#X obj 230 145 loadbang;
#X msg 129 191 4 0 0;
#X msg 71 191 -4 0 0;
#X msg 71 280 0 -4 0;
#X msg 127 280 0 4 0;
#X msg 127 362 0 0 4;
#X msg 71 362 0 0 -4;
#X msg 116 90 0;
#X obj -16 121 s camera;
#X obj 266 592 f;
#X obj 187 573 spigot;
#X obj 248 564 sel 0 1;
#X obj 218 545 t f f;
#X obj 187 621 -;
#X obj 187 670 +;
#X obj 248 634 f;
#X obj 140 589 f;
#X obj 61 570 spigot;
#X obj 122 561 sel 0 1;
#X obj 92 542 t f f;
#X obj 61 621 -;
#X obj 61 670 +;
#X obj 122 631 f;
#X obj 387 583 f;
#X obj 308 567 spigot;
#X obj 369 558 sel 0 1;
#X obj 339 539 t f f;
#X obj 308 618 -;
#X obj 369 628 f;
#X obj 61 886 * 4;
#X obj 116 888 * 4;
#X obj 137 729 t b f;
#X obj 75 793 cos;
#X obj 87 851 * 1;
#X obj 61 851 * 1;
#X obj 113 794 sin;
#X obj 88 887 * 4;
#X obj 75 815 t b f;
#X obj 75 769 / 200;
#X obj 61 912 pack f f f;
#X obj 179 429 gemmouse;
#X obj 496 556 t b f;
#X obj 496 585 |;
#X obj 234 668 loadbang;
#X msg 61 937 view \$1 \$2 \$3 0 0 0 0 1 0;
#X obj 61 729 sin;
#X obj 87 730 cos;
#X obj 308 667 + 200;
#X obj 138 703 / 50;
#X obj 61 704 / -200;
#X obj 61 998 gemwin \$1;
#X msg 190 865 0 0 4;
#X obj 192 797 r camera;
#X obj 61 967 spigot;
#X obj 192 828 t f b;
#X obj 334 150 colorRGB 1 0 0;
#X obj 456 205 loadbang;
#X obj 334 179 translateXYZ 1.5 0.3 0;
#X obj 334 239 colorRGB 0 1 0;
#X obj 334 264 translateXYZ -2.1 1.5 0;
#X obj 334 344 translateXYZ 0.5 -1.5 2;
#X obj 334 319 colorRGB 0 0 1;
#X text 5 9 PATCH D'ILLUSTRATION \, A NE PAS REGARDER \, JUSTE POUR
EXEMPLE :);
#X msg 192 87 width 2;
#X obj 334 207 text3d x;
#X obj 334 292 text3d y;
#X obj 334 372 text3d z;
#X msg 456 231 4;
#X obj 372 57 inlet;
#X obj 329 118 spigot;
#X obj -8 74 inlet;
#X obj 260 940 s camX;
#X obj 310 943 s camY;
#X obj 360 941 s camZ;
#X connect 0 0 72 0;
#X connect 0 0 16 0;
#X connect 1 0 8 0;
#X connect 2 0 6 0;
#X connect 3 0 2 0;
#X connect 4 0 7 0;
#X connect 5 0 78 0;
#X connect 6 0 4 0;
#X connect 7 0 5 0;
#X connect 8 0 3 0;
#X connect 9 0 10 0;
#X connect 9 0 11 0;
#X connect 9 0 13 0;
#X connect 9 0 12 0;
#X connect 9 0 14 0;
#X connect 9 0 15 0;
#X connect 10 0 2 2;
#X connect 11 0 2 1;
#X connect 12 0 4 1;
#X connect 13 0 4 2;
#X connect 14 0 5 2;
#X connect 15 0 5 1;
#X connect 16 0 8 0;
#X connect 18 0 22 1;
#X connect 19 0 22 0;
#X connect 20 0 24 0;
#X connect 20 1 18 0;
#X connect 21 0 19 1;
#X connect 21 1 20 0;
#X connect 22 0 23 0;
#X connect 23 0 24 1;
#X connect 23 0 47 0;
#X connect 24 0 23 1;
#X connect 25 0 29 1;
#X connect 26 0 29 0;
#X connect 27 0 31 0;
#X connect 27 1 25 0;
#X connect 28 0 26 1;
#X connect 28 1 27 0;
#X connect 29 0 30 0;
#X connect 30 0 31 1;
#X connect 30 0 58 0;
#X connect 31 0 30 1;
#X connect 32 0 36 1;
#X connect 33 0 36 0;
#X connect 34 0 37 0;
#X connect 34 1 32 0;
#X connect 35 0 33 1;
#X connect 35 1 34 0;
#X connect 36 0 56 0;
#X connect 37 0 56 1;
#X connect 38 0 48 0;
#X connect 38 0 80 0;
#X connect 39 0 48 2;
#X connect 39 0 82 0;
#X connect 40 0 39 0;
#X connect 40 0 38 0;
#X connect 40 0 45 0;
#X connect 40 1 39 1;
#X connect 40 1 38 1;
#X connect 40 1 45 1;
#X connect 41 0 46 0;
#X connect 42 0 39 0;
#X connect 43 0 38 0;
#X connect 44 0 45 0;
#X connect 45 0 48 1;
#X connect 45 0 81 0;
#X connect 46 0 42 0;
#X connect 46 0 43 0;
#X connect 46 1 42 1;
#X connect 46 1 43 1;
#X connect 47 0 41 0;
#X connect 47 0 44 0;
#X connect 48 0 53 0;
#X connect 49 0 26 0;
#X connect 49 0 25 1;
#X connect 49 1 19 0;
#X connect 49 1 18 1;
#X connect 49 1 32 1;
#X connect 49 1 33 0;
#X connect 49 2 21 0;
#X connect 49 2 28 0;
#X connect 49 2 51 0;
#X connect 49 3 35 0;
#X connect 49 3 50 0;
#X connect 50 0 51 0;
#X connect 50 1 51 1;
#X connect 52 0 58 0;
#X connect 52 0 56 0;
#X connect 53 0 62 0;
#X connect 54 0 43 0;
#X connect 55 0 42 0;
#X connect 56 0 37 1;
#X connect 56 0 57 0;
#X connect 57 0 40 0;
#X connect 58 0 54 0;
#X connect 58 0 55 0;
#X connect 60 0 53 0;
#X connect 61 0 63 0;
#X connect 62 0 59 0;
#X connect 63 0 62 1;
#X connect 63 1 60 0;
#X connect 64 0 66 0;
#X connect 65 0 76 0;
#X connect 66 0 73 0;
#X connect 67 0 68 0;
#X connect 68 0 74 0;
#X connect 69 0 75 0;
#X connect 70 0 69 0;
#X connect 72 0 2 0;
#X connect 72 0 4 0;
#X connect 72 0 5 0;
#X connect 73 0 67 0;
#X connect 74 0 70 0;
#X connect 76 0 73 1;
#X connect 76 0 74 1;
#X connect 76 0 75 1;
#X connect 77 0 78 1;
#X connect 78 0 64 0;
#X connect 79 0 17 0;
#X restore 676 62 pd axe3D;
#N canvas 336 105 682 322 gemwin 0;
#X obj 102 122 tgl 15 0 \$0-gemstart \$0-gemstart empty 17 7 0 10 -262144
-1 -1 0 1;
#X obj 102 161 r \$0-gemstart;
#X obj 102 182 select 1 0;
#X msg 102 214 create \, 1;
#X msg 177 215 destroy;
#X obj 102 239 t a;
#X obj 318 54 inlet;
#X obj 318 255 gemwin;
#X obj 318 100 t a a;
#X obj 318 287 outlet;
#X obj 350 128 route create destroy;
#X obj 350 150 t b;
#X msg 350 172 1;
#X obj 390 150 t b;
#X msg 390 172 0;
#X obj 350 195 t f;
#X msg 350 219 set \$1;
#X text 118 122 rendering;
#X connect 1 0 2 0;
#X connect 2 0 3 0;
#X connect 2 1 4 0;
#X connect 3 0 5 0;
#X connect 4 0 5 0;
#X connect 5 0 8 0;
#X connect 6 0 8 0;
#X connect 7 0 9 0;
#X connect 8 0 7 0;
#X connect 8 1 10 0;
#X connect 10 0 11 0;
#X connect 10 1 13 0;
#X connect 11 0 12 0;
#X connect 12 0 15 0;
#X connect 13 0 14 0;
#X connect 14 0 15 0;
#X connect 15 0 16 0;
#X connect 16 0 0 0;
#X coords 0 -1 1 1 85 40 1 100 100;
#X restore 483 42 pd gemwin;
#X obj 698 15 tgl 15 0 empty empty xyz_axis 17 7 0 10 -262144 -1 -1
0 1;
#N canvas 298 200 450 300 scale2Gem 0;
#X text 76 46 rangex->-200 a 200;
#X text 77 75 rangey->0 a 300;
#X text 71 99 rangey->-200 a 200;
#X obj 105 178 / 200;
#X obj 105 222 s xgem_factor;
#X msg 105 148 4;
#X msg 217 148 4;
#X obj 217 222 s ygem_factor;
#X obj 330 179 / 200;
#X msg 330 149 4;
#X obj 330 223 s zgem_factor;
#X obj 217 178 / 150;
#X connect 3 0 4 0;
#X connect 5 0 3 0;
#X connect 6 0 11 0;
#X connect 8 0 10 0;
#X connect 9 0 8 0;
#X connect 11 0 7 0;
#X restore 485 92 pd scale2Gem;
#X obj 584 261 tgl 15 0 empty empty palm 17 7 0 10 -262144 -1 -1 1
1;
#X obj 584 284 s palm_on;
#X obj 582 312 tgl 15 0 empty empty finger_lines 17 7 0 10 -262144
-1 -1 1 1;
#X obj 583 335 s finger_lines_on;
#X msg 483 19 dimen 800 600 \, lighting 1;
#X obj 503 257 g_hand 0;
#X obj 503 285 g_hand 1;
#X obj 504 314 g_hand 2;
#X obj 483 -4 loadbang;
#N canvas 249 277 450 300 hands_on 0;
#X obj 107 33 r hands_count;
#N canvas 293 258 450 227 0hands 0;
#X obj 98 95 s 0hand_on;
#X obj 110 131 s 1hand_on;
#X obj 185 160 s 2hand_on;
#X obj 179 21 inlet;
#X msg 129 65 0;
#X connect 3 0 4 0;
#X connect 4 0 0 0;
#X connect 4 0 1 0;
#X connect 4 0 2 0;
#X restore 100 210 pd 0hands;
#N canvas 293 258 450 227 1hands 0;
#X obj 98 95 s 0hand_on;
#X obj 110 131 s 1hand_on;
#X obj 185 160 s 2hand_on;
#X obj 179 21 inlet;
#X msg 204 68 0;
#X msg 138 74 1;
#X connect 3 0 4 0;
#X connect 3 0 5 0;
#X connect 4 0 1 0;
#X connect 4 0 2 0;
#X connect 5 0 0 0;
#X restore 126 184 pd 1hands;
#N canvas 291 257 450 227 2hands 0;
#X obj 98 95 s 0hand_on;
#X obj 110 131 s 1hand_on;
#X obj 185 160 s 2hand_on;
#X obj 179 21 inlet;
#X msg 204 68 0;
#X msg 138 74 1;
#X connect 3 0 4 0;
#X connect 3 0 5 0;
#X connect 4 0 2 0;
#X connect 5 0 0 0;
#X connect 5 0 1 0;
#X restore 150 148 pd 2hands;
#N canvas 289 256 450 227 3hands 0;
#X obj 98 95 s 0hand_on;
#X obj 110 131 s 1hand_on;
#X obj 185 160 s 2hand_on;
#X obj 179 21 inlet;
#X msg 204 68 0;
#X msg 138 74 1;
#X connect 3 0 4 0;
#X connect 3 0 5 0;
#X connect 5 0 0 0;
#X connect 5 0 1 0;
#X connect 5 0 2 0;
#X restore 167 97 pd 3hands;
#X obj 107 64 select 0 1 2 3;
#X connect 0 0 5 0;
#X connect 5 0 1 0;
#X connect 5 1 2 0;
#X connect 5 2 3 0;
#X connect 5 3 4 0;
#X restore 485 115 pd hands_on;
#N canvas 505 275 514 391 grid 0;
#X obj 171 45 gemhead;
#X obj 171 154 separator;
#X obj 171 185 separator;
#N canvas 295 209 450 300 grid2 0;
#X msg 227 118 draw line;
#X msg 356 173 grid \$1;
#X floatatom 356 155 5 0 0 0 - - -;
#X floatatom 419 141 5 0 0 0 - - -;
#X msg 198 85 grid 24;
#X obj 218 44 loadbang;
#X obj 48 270 mesh_square 4 4;
#X obj 197 233 mesh_square 4 4;
#X obj 11 191 rotateXYZ 0 0 90;
#X obj 54 150 separator;
#X msg 299 85 8;
#X obj 50 115 inlet;
#X connect 0 0 6 0;
#X connect 0 0 7 0;
#X connect 1 0 6 0;
#X connect 1 0 7 0;
#X connect 2 0 1 0;
#X connect 3 0 6 1;
#X connect 3 0 7 1;
#X connect 4 0 6 0;
#X connect 4 0 7 0;
#X connect 5 0 4 0;
#X connect 5 0 0 0;
#X connect 5 0 10 0;
#X connect 8 0 6 0;
#X connect 9 0 8 0;
#X connect 10 0 6 1;
#X connect 10 0 7 1;
#X connect 11 0 7 0;
#X connect 11 0 9 0;
#X restore 346 295 pd grid2;
#X obj 346 239 separator;
#X floatatom 224 42 5 0 0 0 - - -;
#X floatatom 253 44 5 0 0 0 - - -;
#X floatatom 289 48 5 0 0 0 - - -;
#N canvas 297 210 466 365 grid1 0;
#X msg 227 118 draw line;
#X msg 356 173 grid \$1;
#X floatatom 356 155 5 0 0 0 - - -;
#X floatatom 419 141 5 0 0 0 - - -;
#X msg 198 85 grid 24;
#X obj 218 44 loadbang;
#X obj 48 270 mesh_square 4 4;
#X obj 197 233 mesh_square 4 4;
#X obj 11 191 rotateXYZ 0 0 90;
#X obj 54 150 separator;
#X msg 299 85 8;
#X obj 63 76 inlet;
#X connect 0 0 6 0;
#X connect 0 0 7 0;
#X connect 1 0 6 0;
#X connect 1 0 7 0;
#X connect 2 0 1 0;
#X connect 3 0 6 1;
#X connect 3 0 7 1;
#X connect 4 0 6 0;
#X connect 4 0 7 0;
#X connect 5 0 4 0;
#X connect 5 0 0 0;
#X connect 5 0 10 0;
#X connect 8 0 6 0;
#X connect 9 0 8 0;
#X connect 10 0 6 1;
#X connect 10 0 7 1;
#X connect 11 0 9 0;
#X connect 11 0 7 0;
#X restore 168 298 pd grid1;
#X obj 191 79 translateXYZ 0 0 0;
#X obj 346 265 translateXYZ 0 0 -8;
#X obj 174 229 translateXYZ 0 -8 0;
#X obj 169 261 rotateXYZ 90 0 0;
#X obj 277 130 alpha;
#X obj 338 102 tgl 15 0 empty empty empty 17 7 0 10 -262144 -1 -1 0
1;
#X obj 168 112 color 1 1 1 0.2;
#X obj 133 19 inlet;
#X connect 0 0 9 0;
#X connect 1 0 2 0;
#X connect 1 0 4 0;
#X connect 2 0 11 0;
#X connect 4 0 10 0;
#X connect 5 0 9 1;
#X connect 6 0 9 2;
#X connect 7 0 9 3;
#X connect 9 0 15 0;
#X connect 10 0 3 0;
#X connect 11 0 12 0;
#X connect 12 0 8 0;
#X connect 13 0 1 0;
#X connect 14 0 13 1;
#X connect 15 0 13 0;
#X connect 16 0 0 0;
#X restore 675 121 pd grid;
#X obj 721 39 tgl 15 0 empty empty txt 17 7 0 10 -262144 -1 -1 0 1
;
#N canvas 749 316 450 300 light 0;
#X obj 186 210 world_light;
#X obj 268 39 gemhead;
#X msg 207 62 debug 1;
#X msg 185 44 debug 0;
#X floatatom 229 108 5 0 0 0 - - -;
#X floatatom 275 122 5 0 0 0 - - -;
#X obj 211 166 rotateXYZ 32 0 0;
#X obj 42 27 gemhead;
#X floatatom 106 110 5 0 0 0 - - -;
#X obj 88 168 rotateXYZ 32 0 0;
#X obj 63 212 light;
#X obj 45 162 tgl 15 0 empty empty empty 17 7 0 10 -262144 -1 -1 1
1;
#X floatatom 123 45 5 0 0 0 - - -;
#X obj 57 89 translateXYZ 0 7 0;
#X obj -41 79 loadbang;
#X msg -38 108 1;
#X connect 1 0 6 0;
#X connect 2 0 0 0;
#X connect 2 0 10 0;
#X connect 3 0 0 0;
#X connect 3 0 10 0;
#X connect 4 0 6 1;
#X connect 5 0 6 2;
#X connect 6 0 0 0;
#X connect 7 0 13 0;
#X connect 8 0 9 1;
#X connect 9 0 10 0;
#X connect 11 0 10 0;
#X connect 12 0 13 2;
#X connect 13 0 9 0;
#X connect 14 0 15 0;
#X connect 15 0 11 0;
#X restore 573 44 pd light;
#X obj 675 101 tgl 15 0 empty empty grid 17 7 0 10 -262144 -1 -1 1
1;
#X obj 675 -1 tgl 15 0 empty empty camera 17 7 0 10 -262144 -1 -1 1
1;
#N canvas 548 364 450 300 counters 0;
#X obj 79 46 gemhead;
#X obj 79 88 translateXYZ 0 3 -2;
#X obj 78 152 text3d;
#X msg 187 129 text hands: \$1 fingers: \$2;
#X floatatom 109 120 5 0 0 0 - - -;
#X msg 133 124 6;
#X obj 246 36 r hands_count;
#X obj 246 78 r fingers_count;
#X obj 219 99 pack f f;
#X obj 80 15 inlet;
#X obj 145 28 loadbang;
#X connect 0 0 1 0;
#X connect 1 0 2 0;
#X connect 3 0 2 0;
#X connect 4 0 2 1;
#X connect 5 0 2 1;
#X connect 6 0 8 0;
#X connect 7 0 8 1;
#X connect 8 0 3 0;
#X connect 9 0 0 0;
#X connect 10 0 5 0;
#X connect 10 0 3 0;
#X restore 575 124 pd counters;
#X obj 575 101 tgl 15 0 empty empty counters 17 7 0 10 -262144 -1 -1
0 1;
#N canvas 542 361 450 300 gesture 0;
#X obj 79 56 gemhead;
#X obj 78 212 text3d;
#X floatatom 109 180 5 0 0 0 - - -;
#X obj 147 21 inlet;
#X obj 141 166 loadbang;
#X msg 187 189 text gesture: \$1;
#X obj 271 55 r g_gesture;
#X obj 271 78 t a b;
#X obj 105 89 spigot;
#X obj 25 24 r g_gesture_on;
#X msg 295 122 1;
#X obj 291 152 s g_gesture_on;
#X obj 353 77 bng 15 250 50 0 empty empty empty 17 7 0 10 -262144 -1
-1;
#X obj 318 202 bng 15 250 50 0 empty empty empty 17 7 0 10 -262144
-1 -1;
#X obj 362 185 counter 20;
#X obj 353 40 r g_gesture_on;
#X obj 296 265 select 20;
#X obj 186 267 s g_gesture_on;
#X msg 190 237 0;
#X obj 366 120 metro 100;
#X obj 83 144 translateXYZ 0 2 -1;
#X msg 133 184 7;
#X obj 78 120 color 1 1 0;
#X connect 0 0 8 0;
#X connect 2 0 1 1;
#X connect 3 0 8 1;
#X connect 4 0 21 0;
#X connect 4 0 5 0;
#X connect 5 0 1 0;
#X connect 6 0 7 0;
#X connect 7 0 5 0;
#X connect 7 1 10 0;
#X connect 8 0 22 0;
#X connect 9 0 0 0;
#X connect 10 0 11 0;
#X connect 14 0 16 0;
#X connect 15 0 19 0;
#X connect 16 0 18 0;
#X connect 18 0 17 0;
#X connect 19 0 14 0;
#X connect 20 0 1 0;
#X connect 21 0 1 1;
#X connect 22 0 20 0;
#X restore 577 181 pd gesture;
#X obj 575 159 tgl 15 0 empty empty gest 17 7 0 10 -262144 -1 -1 1
1;
#X obj 242 378 gesture 1;
#X obj 362 378 gesture 2;
#X connect 0 0 4 0;
#X connect 1 0 2 0;
#X connect 2 0 0 0;
#X connect 3 0 4 0;
#X connect 4 0 11 0;
#X connect 4 1 5 0;
#X connect 4 2 8 0;
#X connect 5 0 10 0;
#X connect 5 1 12 0;
#X connect 6 0 4 0;
#X connect 18 0 16 1;
#X connect 20 0 21 0;
#X connect 22 0 23 0;
#X connect 24 0 17 0;
#X connect 28 0 24 0;
#X connect 31 0 16 2;
#X connect 33 0 30 0;
#X connect 34 0 16 0;
#X connect 36 0 35 0;
#X connect 38 0 37 0;
